<svg xmlns="http://www.w3.org/2000/svg" pointer-events="none" class="leaflet-zoom-animated" width="1973" height="1226" viewBox="-164 -102 1973 1226" style="transform: translate3d(-164px, -102px, 0px);"><g><path class="leaflet-interactive" stroke="black" stroke-opacity="1" stroke-width="2" stroke-linecap="round" stroke-linejoin="round" fill="#fff" fill-opacity="0.2" fill-rule="evenodd" d="M630 750L627 748L625 743L613 740L602 743L599 749L593 750L589 754L584 754L581 751L569 747L565 744L556 745L553 740L556 729L554 727L553 720L548 717L548 714L544 707L545 700L533 698L530 695L522 692L520 694L508 686L502 687L491 683L483 682L475 674L470 672L471 668L468 668L466 672L459 675L461 677L462 682L457 698L452 704L450 704L446 699L444 700L444 697L441 699L442 701L444 701L439 704L427 705L419 709L418 724L417 727L412 732L403 734L397 731L392 732L392 738L401 740L401 744L395 744L386 754L386 756L382 759L373 758L377 767L386 765L388 768L381 788L365 800L365 813L363 826L359 836L360 843L358 847L361 860L368 866L372 877L371 879L362 879L362 882L373 891L379 902L377 914L375 918L373 918L371 923L364 914L362 915L362 920L365 925L361 924L363 925L363 933L366 938L363 943L366 949L366 958L367 963L369 965L368 967L370 969L370 974L368 977L371 980L371 983L372 984L379 979L386 986L405 988L415 985L418 986L420 990L429 998L428 1003L431 1011L435 1011L438 1008L444 1008L447 1010L447 1012L457 1014L471 1004L478 1001L479 998L479 984L473 971L474 968L471 964L471 961L473 959L474 963L479 958L478 960L480 962L484 959L485 960L486 955L480 950L479 954L477 955L476 950L473 950L473 956L471 957L469 948L466 946L466 942L464 942L465 941L462 935L468 936L468 939L472 939L476 932L478 932L477 929L472 926L471 921L473 919L471 916L468 918L466 916L468 913L472 911L473 908L473 910L476 909L480 911L484 906L481 906L478 903L485 899L484 892L482 890L485 889L491 881L494 881L497 876L504 877L505 880L503 884L511 884L513 887L515 903L517 903L521 915L521 929L523 930L523 927L527 927L527 924L532 925L536 930L539 929L541 924L545 924L545 920L555 915L561 916L563 914L576 914L579 910L580 894L582 893L581 890L584 889L584 892L587 895L590 891L594 892L593 896L595 902L598 903L604 900L607 895L614 890L614 887L617 884L614 880L618 878L619 881L620 876L623 876L622 871L617 869L616 866L613 865L614 859L610 858L605 851L612 845L617 845L635 838L643 825L645 824L643 830L650 832L652 835L654 832L655 823L661 830L660 840L662 854L666 855L675 864L674 868L672 868L672 871L667 872L666 874L672 876L676 881L678 879L683 882L681 885L682 890L684 894L689 898L691 903L689 906L688 915L688 921L692 927L690 930L691 933L688 936L689 943L684 945L682 948L675 947L676 953L679 955L681 954L684 957L686 956L688 959L689 958L693 960L694 957L696 959L698 959L697 958L700 956L703 958L707 946L710 947L719 943L719 947L724 951L723 954L727 957L730 954L732 958L735 958L739 961L743 961L745 959L747 964L749 961L752 961L754 956L757 955L756 951L757 948L760 946L758 942L749 937L748 933L742 932L740 929L745 923L743 919L745 918L746 920L748 920L750 916L755 920L761 910L764 911L768 906L777 907L777 898L771 896L772 892L769 889L771 879L773 877L771 873L772 870L779 884L780 880L787 879L788 881L796 878L798 871L803 869L805 865L808 863L809 865L811 864L810 857L819 859L821 864L828 854L834 857L836 856L837 851L852 857L853 850L860 852L862 850L864 851L867 849L869 853L871 847L874 845L882 845L886 841L892 841L893 843L895 843L892 835L897 833L899 830L900 823L906 814L916 810L919 807L924 807L929 795L934 795L938 800L945 801L952 807L955 814L970 820L972 818L979 819L992 815L995 816L997 818L996 826L1001 828L1004 827L1006 829L1004 833L1007 833L1006 838L1008 843L1009 845L1012 844L1012 842L1014 843L1016 853L1016 857L1011 857L1011 855L1009 855L1003 868L1007 867L1008 870L1016 872L1023 865L1029 868L1033 868L1036 865L1038 869L1040 866L1038 860L1042 857L1042 852L1044 854L1045 860L1054 866L1057 867L1060 865L1061 868L1065 869L1067 867L1072 870L1072 876L1068 889L1064 891L1061 891L1058 887L1054 887L1053 889L1060 898L1059 909L1062 914L1068 908L1071 909L1067 925L1073 938L1073 946L1074 948L1079 950L1087 960L1091 961L1094 964L1098 963L1110 958L1112 953L1116 951L1127 954L1130 958L1134 959L1136 966L1138 967L1143 965L1148 960L1153 961L1157 967L1158 974L1161 968L1163 969L1167 968L1168 966L1171 966L1171 961L1169 958L1163 955L1162 950L1167 948L1174 953L1180 953L1179 948L1172 947L1172 944L1174 942L1183 941L1193 927L1201 921L1203 910L1213 900L1227 881L1233 871L1233 866L1240 865L1242 863L1239 853L1243 850L1245 845L1243 843L1230 839L1227 835L1227 827L1230 815L1258 809L1260 803L1260 793L1263 787L1263 781L1267 779L1269 775L1269 772L1263 764L1263 754L1261 749L1263 746L1269 745L1270 742L1264 735L1248 729L1246 727L1246 721L1258 717L1260 712L1254 706L1240 700L1236 696L1232 683L1228 678L1227 674L1225 673L1216 655L1212 652L1205 651L1199 646L1198 639L1200 633L1198 628L1194 625L1195 607L1193 601L1199 590L1196 583L1195 571L1199 562L1210 561L1213 534L1219 530L1235 530L1245 515L1256 512L1258 510L1259 502L1267 484L1270 482L1277 484L1281 487L1289 482L1289 464L1291 462L1297 462L1298 460L1298 450L1301 441L1295 438L1295 434L1291 429L1291 425L1295 415L1300 412L1300 400L1306 395L1313 383L1311 376L1315 374L1318 370L1324 355L1321 346L1326 340L1324 324L1317 311L1321 303L1332 295L1339 295L1345 293L1352 287L1359 278L1359 270L1364 266L1367 257L1364 252L1372 232L1375 229L1374 228L1377 226L1377 217L1380 208L1386 202L1377 202L1370 198L1368 192L1372 188L1371 186L1369 186L1366 187L1364 191L1362 190L1362 180L1354 180L1353 183L1350 184L1344 177L1344 174L1347 169L1344 165L1341 167L1341 169L1338 169L1337 166L1339 164L1336 159L1337 153L1344 150L1345 146L1350 144L1348 141L1349 136L1353 135L1353 132L1359 127L1359 122L1362 118L1361 111L1357 107L1353 110L1352 114L1348 116L1338 116L1333 118L1332 113L1329 113L1331 115L1329 114L1328 117L1321 120L1319 124L1316 126L1311 129L1294 133L1292 136L1288 138L1287 142L1282 147L1277 157L1278 158L1274 161L1266 173L1262 175L1254 186L1255 193L1252 195L1253 200L1246 210L1242 213L1239 211L1225 213L1222 210L1220 210L1211 199L1210 196L1212 194L1209 190L1208 185L1199 175L1196 176L1196 179L1192 183L1189 182L1185 177L1180 175L1176 176L1172 182L1172 186L1175 189L1165 199L1160 193L1152 189L1138 174L1137 171L1131 167L1136 162L1135 161L1127 161L1124 157L1120 155L1118 157L1102 150L1098 154L1098 168L1100 172L1106 173L1116 194L1118 206L1120 209L1114 209L1106 215L1102 215L1096 219L1093 219L1088 223L1087 226L1084 225L1078 229L1069 231L1067 233L1055 232L1039 212L1035 215L1033 220L1031 218L1032 223L1034 225L1038 224L1043 230L1054 238L1054 240L1050 244L1039 253L1037 253L1044 267L1036 268L1034 263L1026 261L1022 268L1017 270L1007 282L1003 283L994 296L988 296L985 305L980 303L978 308L983 313L983 322L968 350L968 353L966 351L963 352L961 356L950 366L948 366L939 357L927 368L921 374L921 378L913 386L910 396L894 401L892 405L892 414L902 425L892 435L888 434L881 427L875 429L860 447L854 459L850 463L845 465L838 476L821 489L820 491L822 493L822 502L816 509L809 513L804 529L797 544L801 551L795 560L791 563L793 568L793 575L812 592L823 598L825 601L820 613L825 624L817 624L811 637L811 641L806 641L803 643L800 653L790 657L786 645L781 640L774 622L763 615L755 615L761 629L762 637L755 653L753 673L754 691L756 699L751 710L751 717L754 726L752 732L747 735L735 734L730 739L711 744L707 744L694 735L687 732L674 736L658 746L642 747L635 751z" id="榆林市"/><path class="leaflet-interactive" stroke="#333" stroke-opacity="1" stroke-width="1" stroke-linecap="round" stroke-linejoin="round" stroke-dasharray="1,6" fill="#eee" fill-opacity="0.5" fill-rule="evenodd" d="M1077 662L1079 668L1073 670L1077 677L1079 677L1082 680L1087 679L1094 683L1100 692L1104 692L1105 686L1103 685L1101 679L1104 674L1096 667L1094 661L1086 655L1087 645L1095 639L1088 632L1089 629L1087 623L1095 628L1091 630L1091 633L1095 633L1094 630L1100 632L1101 634L1105 632L1103 627L1096 627L1099 622L1102 621L1095 619L1094 617L1088 618L1087 616L1087 614L1090 613L1092 615L1096 615L1096 609L1094 608L1094 605L1098 602L1095 599L1095 592L1089 586L1082 582L1077 561L1076 544L1078 537L1080 536L1082 538L1085 538L1087 530L1089 528L1087 526L1088 522L1090 521L1090 523L1098 526L1103 530L1107 525L1106 521L1109 519L1115 520L1121 525L1124 525L1124 523L1121 523L1123 520L1126 521L1130 517L1129 512L1132 509L1137 519L1139 515L1151 519L1159 512L1163 511L1165 505L1168 502L1166 502L1163 499L1162 491L1151 478L1151 472L1153 469L1152 465L1140 465L1136 469L1133 467L1130 468L1115 465L1111 460L1095 451L1095 438L1068 432L1045 436L1039 432L1032 418L1023 414L1022 423L1018 426L1014 424L1013 417L1016 414L1020 414L1021 409L1013 404L1007 404L1003 400L1001 385L1006 380L1013 378L1020 379L1024 382L1030 383L1032 381L1028 372L993 343L990 338L987 337L980 326L968 350L968 353L966 351L963 352L961 356L950 366L948 366L939 357L921 374L921 378L913 386L910 396L894 401L891 411L892 414L902 425L892 435L888 434L881 427L875 429L860 447L854 459L850 463L845 465L838 476L821 489L820 491L822 493L822 502L816 509L809 513L804 529L797 544L801 551L795 560L791 563L793 568L792 573L812 592L819 596L823 594L842 601L845 607L853 615L859 617L862 616L863 608L873 610L876 608L881 608L884 612L892 610L899 612L902 617L906 617L908 615L907 609L909 598L908 574L912 574L918 566L931 569L938 565L948 570L959 582L964 574L973 573L976 570L976 563L978 560L977 557L991 549L995 549L999 560L990 574L997 582L1000 590L1002 592L1007 593L1006 598L1014 604L1019 616L1013 616L1013 619L1008 625L1016 634L1022 638L1029 640L1033 645L1049 644L1052 647L1054 644L1058 644L1069 651L1076 661zM1023 414L1021 409L1020 414L1022 416z" id="榆阳区"/><path class="leaflet-interactive" stroke="#333" stroke-opacity="1" stroke-width="1" stroke-linecap="round" stroke-linejoin="round" stroke-dasharray="1,6" fill="#eee" fill-opacity="0.5" fill-rule="evenodd" d="M819 596L823 598L825 601L820 613L825 624L817 624L811 637L811 641L806 641L803 643L800 653L793 656L793 658L798 669L801 669L804 664L820 664L820 661L824 660L826 665L825 668L828 672L830 673L832 671L840 671L845 673L843 676L844 681L838 682L833 687L836 691L833 694L835 698L834 709L833 712L826 716L826 723L822 729L822 734L820 735L819 740L821 742L828 742L834 739L840 743L841 747L846 749L851 754L862 759L866 765L871 766L874 774L874 785L881 798L879 800L884 808L884 812L882 814L880 822L882 826L886 828L892 835L897 833L899 830L900 823L907 813L914 811L919 807L925 806L929 795L940 794L953 790L959 782L962 782L962 780L956 774L956 770L962 774L964 768L959 757L964 757L968 759L973 756L976 756L970 742L973 738L973 734L977 732L984 739L986 738L988 731L999 718L998 710L993 709L993 698L996 702L1002 703L1005 698L1007 698L1007 696L1016 702L1024 702L1025 697L1021 694L1021 689L1023 687L1025 688L1033 684L1033 676L1037 673L1044 674L1046 671L1050 673L1048 680L1051 682L1051 677L1055 670L1058 668L1064 669L1065 664L1077 662L1069 651L1058 644L1054 644L1052 647L1049 644L1033 645L1029 640L1022 638L1016 634L1011 627L1008 626L1013 619L1013 616L1019 617L1014 604L1006 598L1007 593L1002 592L1000 590L997 582L990 574L999 560L995 549L991 549L977 557L978 560L976 563L976 570L973 573L964 574L960 582L957 581L948 570L939 565L931 569L918 566L912 574L909 574L909 598L907 617L902 617L899 612L892 610L884 612L881 608L876 608L873 610L863 607L862 616L859 617L853 615L845 607L842 601L823 594L821 595z" id="横山区"/><path class="leaflet-interactive" stroke="#333" stroke-opacity="1" stroke-width="1" stroke-linecap="round" stroke-linejoin="round" stroke-dasharray="1,6" fill="#eee" fill-opacity="0.5" fill-rule="evenodd" d="M1303 397L1306 395L1313 383L1311 376L1315 374L1318 370L1324 355L1321 346L1326 340L1325 328L1321 317L1317 311L1321 303L1332 295L1339 295L1345 293L1352 287L1359 278L1359 270L1364 266L1367 257L1364 252L1372 232L1375 229L1374 228L1377 226L1377 217L1380 208L1386 202L1377 202L1370 198L1368 192L1372 188L1371 186L1369 186L1366 187L1364 191L1362 190L1362 180L1354 180L1353 183L1350 184L1344 177L1344 174L1347 169L1344 165L1341 167L1341 169L1338 169L1337 166L1339 164L1336 159L1337 153L1344 150L1345 146L1350 144L1348 141L1349 136L1353 135L1353 132L1359 127L1359 122L1362 118L1362 113L1357 107L1353 110L1352 114L1345 117L1338 116L1333 118L1332 113L1329 113L1331 115L1329 114L1328 117L1321 120L1319 124L1316 126L1311 129L1294 133L1292 136L1288 138L1287 142L1282 147L1277 157L1278 158L1274 161L1266 173L1262 175L1254 186L1255 193L1252 195L1253 200L1246 210L1242 213L1239 211L1225 213L1222 210L1220 210L1211 199L1210 196L1212 194L1209 190L1208 185L1199 175L1196 176L1196 179L1192 183L1189 182L1185 177L1180 175L1176 176L1172 182L1172 186L1175 189L1168 195L1163 203L1165 211L1169 217L1167 225L1170 231L1173 234L1186 240L1192 248L1194 246L1196 248L1199 247L1206 255L1202 264L1203 266L1205 267L1210 264L1213 266L1212 271L1210 273L1212 274L1212 278L1216 280L1218 278L1220 279L1226 283L1225 285L1228 285L1230 292L1233 291L1237 293L1237 297L1232 300L1232 309L1237 312L1237 316L1241 320L1244 327L1256 334L1263 333L1271 338L1274 342L1281 345L1284 355L1281 358L1279 358L1279 361L1281 366L1285 368L1283 371L1286 374L1281 376L1281 380L1279 381L1279 383L1281 383L1281 385L1284 386L1289 386L1288 387L1290 392L1292 389L1294 391L1299 391L1300 394z" id="府谷县"/><path class="leaflet-interactive" stroke="#333" stroke-opacity="1" stroke-width="1" stroke-linecap="round" stroke-linejoin="round" stroke-dasharray="1,6" fill="#eee" fill-opacity="0.5" fill-rule="evenodd" d="M645 824L643 830L650 832L652 835L654 832L655 823L661 830L660 840L662 854L666 855L675 864L674 868L672 868L672 871L667 872L666 874L672 876L676 881L678 879L683 882L681 885L682 890L684 894L689 898L691 903L689 906L688 915L688 921L692 927L690 930L691 933L688 936L689 943L684 945L682 948L675 947L675 951L679 955L681 954L684 957L686 956L688 959L689 958L693 960L694 957L696 959L698 959L697 958L700 956L703 958L707 946L710 947L719 943L719 947L723 949L723 954L727 957L730 954L732 958L735 958L739 961L743 961L745 959L747 964L749 961L752 961L754 956L757 955L756 951L757 948L760 946L759 943L751 939L748 933L742 932L740 929L745 923L743 919L745 918L746 920L748 920L750 916L755 920L761 910L764 911L768 906L777 907L777 898L771 896L772 892L769 889L771 879L773 877L771 873L772 870L779 884L780 880L787 879L788 881L796 878L798 871L803 869L805 865L808 863L809 865L811 864L810 857L819 859L821 864L828 854L834 857L836 856L837 851L852 857L853 850L860 852L862 850L864 851L867 849L869 853L871 847L874 845L882 845L886 841L892 841L893 843L895 843L892 835L886 828L882 826L880 822L882 814L884 812L884 808L879 800L881 798L874 785L874 775L871 766L866 765L862 759L851 754L846 749L841 747L840 744L834 739L828 742L821 742L819 740L820 735L822 734L822 729L826 724L826 717L828 714L833 712L834 709L835 698L833 694L836 692L833 687L838 682L844 681L843 677L845 674L841 671L832 671L831 673L828 672L825 668L826 665L824 660L821 660L820 664L804 664L801 669L798 669L793 656L790 657L786 645L781 640L774 622L763 615L755 615L761 629L762 637L755 653L753 673L754 691L756 699L751 710L751 717L754 726L752 732L747 735L735 734L730 739L711 744L707 744L694 735L687 732L674 736L658 746L642 747L635 751L630 750L627 754L628 757L626 758L630 771L637 780L639 785L638 805L644 811L641 815L641 820L643 821z" id="靖边县"/><path class="leaflet-interactive" stroke="#333" stroke-opacity="1" stroke-width="1" stroke-linecap="round" stroke-linejoin="round" stroke-dasharray="1,6" fill="#eee" fill-opacity="0.5" fill-rule="evenodd" d="M630 750L627 748L625 743L613 740L602 743L599 749L593 750L589 754L584 754L581 751L569 747L565 744L556 745L553 740L556 729L554 727L553 720L548 717L548 714L544 707L545 700L533 698L530 695L522 692L520 694L508 686L502 687L491 683L483 682L475 674L470 672L471 668L468 668L466 672L459 675L461 677L462 682L457 698L452 704L450 704L446 699L444 700L444 697L441 699L442 701L444 701L439 704L427 705L419 709L418 724L417 727L412 732L403 734L397 731L392 732L392 738L401 740L401 744L395 744L386 754L386 756L382 759L373 758L377 767L386 765L388 768L381 788L365 800L365 813L363 826L359 836L360 843L358 847L361 860L368 866L372 877L371 879L362 879L362 882L373 891L379 902L377 914L375 918L373 918L371 923L364 914L362 915L362 920L365 925L361 924L363 925L363 933L366 938L363 943L366 949L366 958L367 963L369 965L368 967L370 969L370 974L368 977L371 980L371 983L372 984L379 979L386 986L405 988L415 985L418 986L420 990L429 998L428 1003L431 1011L435 1011L438 1008L444 1008L447 1010L447 1012L457 1014L471 1004L478 1001L479 984L473 971L474 968L471 964L471 961L473 959L474 963L479 958L478 960L480 962L484 959L485 960L486 955L480 950L479 954L477 955L476 950L473 950L473 956L471 957L469 948L466 946L466 942L464 942L465 941L462 935L468 936L468 939L472 939L476 932L478 932L477 929L472 926L471 921L473 919L471 916L468 918L466 916L468 913L472 911L473 908L473 910L476 909L480 911L484 906L481 906L478 903L485 899L484 892L482 890L485 889L491 881L494 881L497 876L505 878L503 884L511 884L513 887L515 903L517 903L521 915L520 927L523 930L523 927L527 927L527 924L532 925L536 930L539 929L541 924L545 924L545 920L555 915L561 916L563 914L576 914L579 910L580 894L582 893L581 890L584 889L584 892L587 895L590 891L594 892L593 896L595 902L598 903L604 900L607 895L614 890L614 887L617 884L614 880L618 878L619 881L620 876L623 876L622 871L617 869L616 866L613 865L614 859L610 858L605 851L612 845L617 845L635 838L643 825L645 824L641 820L641 816L644 811L638 805L639 785L637 780L630 771L627 763L626 758L628 757L628 753z" id="定边县"/><path class="leaflet-interactive" stroke="#333" stroke-opacity="1" stroke-width="1" stroke-linecap="round" stroke-linejoin="round" stroke-dasharray="1,6" fill="#eee" fill-opacity="0.5" fill-rule="evenodd" d="M1205 723L1203 721L1198 720L1194 722L1192 721L1193 715L1190 711L1185 711L1170 720L1170 726L1160 732L1152 726L1148 726L1141 729L1138 729L1136 726L1134 726L1131 729L1129 735L1122 743L1107 727L1104 727L1102 729L1095 729L1096 734L1091 738L1090 750L1092 755L1091 771L1097 781L1096 791L1095 793L1085 799L1084 803L1088 803L1093 806L1094 816L1100 828L1100 831L1103 829L1106 822L1108 822L1111 829L1117 829L1126 825L1128 822L1132 821L1134 823L1137 823L1142 830L1137 834L1138 839L1136 844L1133 845L1135 856L1141 850L1144 850L1148 842L1167 858L1180 856L1186 860L1190 858L1191 860L1196 859L1200 865L1205 865L1206 860L1214 857L1214 853L1208 850L1209 847L1212 847L1217 849L1222 856L1229 854L1231 855L1231 860L1235 865L1240 865L1242 863L1242 860L1239 856L1239 853L1243 850L1245 845L1243 843L1230 839L1227 835L1227 827L1230 815L1235 813L1232 809L1225 808L1223 798L1230 798L1231 795L1226 789L1223 774L1217 767L1217 765L1221 764L1221 755L1225 753L1224 751L1219 751L1220 747L1214 747L1212 745L1210 736L1205 726z" id="绥德县"/><path class="leaflet-interactive" stroke="#333" stroke-opacity="1" stroke-width="1" stroke-linecap="round" stroke-linejoin="round" stroke-dasharray="1,6" fill="#eee" fill-opacity="0.5" fill-rule="evenodd" d="M1098 602L1094 605L1094 608L1096 609L1096 615L1092 615L1091 613L1087 614L1087 616L1088 618L1094 617L1095 619L1102 621L1099 622L1096 626L1097 628L1102 627L1105 631L1103 634L1101 634L1100 632L1094 630L1095 633L1093 634L1091 633L1091 630L1095 628L1087 623L1089 629L1088 632L1095 639L1087 645L1086 654L1087 657L1094 661L1096 667L1104 673L1101 678L1103 685L1105 686L1104 692L1101 692L1094 683L1087 679L1082 680L1079 677L1077 677L1073 671L1079 668L1077 662L1065 664L1064 669L1058 668L1055 670L1052 674L1051 682L1048 680L1051 673L1046 671L1045 674L1038 673L1033 676L1033 684L1026 688L1023 687L1021 689L1021 693L1025 697L1024 702L1026 704L1034 702L1036 700L1042 710L1045 707L1047 710L1052 706L1052 717L1054 716L1063 728L1065 726L1072 726L1074 728L1077 726L1095 729L1102 729L1106 727L1122 743L1129 735L1131 729L1134 726L1136 726L1138 729L1152 726L1159 732L1168 728L1170 726L1170 720L1185 711L1191 710L1192 707L1188 700L1183 700L1185 695L1183 689L1175 681L1166 676L1164 673L1160 673L1155 668L1154 662L1151 659L1151 653L1149 648L1147 652L1143 652L1143 654L1141 652L1141 649L1137 646L1124 642L1118 642L1114 626L1112 623L1108 621L1105 622L1104 616L1102 615L1101 610L1099 608L1099 601z" id="米脂县"/><path class="leaflet-interactive" stroke="#333" stroke-opacity="1" stroke-width="1" stroke-linecap="round" stroke-linejoin="round" stroke-dasharray="1,6" fill="#eee" fill-opacity="0.5" fill-rule="evenodd" d="M1199 562L1197 560L1199 559L1198 556L1194 557L1194 555L1188 551L1191 550L1187 549L1185 547L1187 545L1182 542L1185 541L1184 538L1187 537L1187 534L1181 533L1181 531L1183 530L1182 526L1177 524L1180 519L1179 517L1177 517L1176 519L1176 512L1172 512L1172 509L1168 508L1170 505L1170 503L1168 502L1165 505L1163 511L1159 512L1151 519L1139 515L1137 518L1135 517L1132 509L1129 512L1130 517L1126 521L1123 520L1121 522L1124 523L1124 525L1121 525L1115 520L1109 519L1106 521L1107 525L1103 530L1098 526L1090 523L1090 521L1088 522L1087 526L1089 528L1087 530L1085 538L1082 538L1081 536L1078 537L1076 544L1077 561L1082 582L1089 586L1095 592L1095 599L1100 603L1099 607L1102 615L1104 616L1105 622L1108 621L1112 623L1114 626L1118 642L1124 642L1137 646L1141 649L1140 652L1142 654L1143 652L1146 653L1148 648L1150 650L1151 659L1154 662L1155 668L1160 673L1164 673L1166 676L1171 678L1183 689L1185 695L1183 700L1184 701L1187 699L1192 706L1190 711L1193 715L1192 721L1194 722L1198 720L1203 721L1205 723L1208 722L1211 724L1213 728L1218 729L1221 726L1225 726L1231 730L1232 724L1235 723L1239 727L1246 725L1246 721L1258 717L1260 712L1254 706L1240 700L1236 696L1232 683L1228 678L1227 674L1225 673L1216 655L1212 652L1205 651L1199 646L1198 639L1200 633L1198 628L1194 625L1195 607L1193 603L1199 590L1195 578L1195 571L1197 566z" id="佳县"/><path class="leaflet-interactive" stroke="#333" stroke-opacity="1" stroke-width="1" stroke-linecap="round" stroke-linejoin="round" stroke-dasharray="1,6" fill="#eee" fill-opacity="0.5" fill-rule="evenodd" d="M1246 725L1240 727L1235 723L1232 724L1231 730L1225 726L1216 729L1213 728L1209 722L1205 723L1212 745L1214 747L1219 747L1219 750L1221 752L1224 751L1225 753L1221 755L1221 763L1217 767L1223 774L1226 789L1231 795L1230 798L1223 798L1225 808L1230 808L1235 813L1258 809L1260 803L1260 793L1263 787L1263 781L1267 779L1269 775L1269 772L1263 764L1263 754L1261 749L1263 746L1269 745L1270 742L1264 735L1248 729L1246 727z" id="吴堡县"/><path class="leaflet-interactive" stroke="#333" stroke-opacity="1" stroke-width="1" stroke-linecap="round" stroke-linejoin="round" stroke-dasharray="1,6" fill="#eee" fill-opacity="0.5" fill-rule="evenodd" d="M1067 867L1072 870L1072 876L1068 889L1064 891L1061 891L1058 887L1054 887L1053 889L1060 898L1059 909L1062 914L1068 908L1071 909L1067 925L1073 938L1072 941L1074 948L1079 950L1087 960L1091 961L1094 964L1110 958L1114 951L1127 954L1130 958L1134 959L1136 966L1138 967L1143 965L1148 960L1153 961L1157 967L1158 974L1161 968L1167 968L1172 964L1169 958L1163 955L1162 950L1167 948L1174 953L1180 953L1179 948L1172 947L1172 944L1174 942L1183 941L1193 927L1201 921L1203 910L1213 900L1227 881L1233 871L1233 866L1235 865L1231 860L1231 855L1229 854L1223 856L1217 849L1212 847L1209 847L1208 849L1214 853L1214 857L1206 860L1205 865L1200 865L1196 859L1191 860L1190 858L1186 860L1180 856L1168 858L1148 842L1144 849L1137 853L1135 856L1133 845L1136 844L1138 839L1138 832L1141 832L1142 830L1138 823L1134 823L1132 821L1128 822L1126 825L1117 829L1111 829L1108 822L1106 822L1103 829L1100 831L1097 830L1092 832L1090 839L1086 844L1085 853L1081 858L1081 864L1078 868L1071 868L1071 866L1067 864z" id="清涧县"/><path class="leaflet-interactive" stroke="#333" stroke-opacity="1" stroke-width="1" stroke-linecap="round" stroke-linejoin="round" stroke-dasharray="1,6" fill="#eee" fill-opacity="0.5" fill-rule="evenodd" d="M1067 867L1067 864L1071 866L1071 868L1078 868L1081 864L1081 858L1085 853L1086 844L1090 839L1092 832L1097 830L1100 832L1100 828L1094 816L1093 806L1091 804L1084 803L1085 799L1095 793L1096 791L1097 781L1091 771L1092 755L1090 750L1090 741L1092 736L1096 734L1096 731L1093 728L1077 726L1074 728L1072 726L1065 726L1063 728L1061 727L1058 720L1054 716L1052 717L1053 706L1047 710L1045 707L1042 710L1040 705L1038 706L1037 700L1026 704L1024 702L1013 701L1008 696L1002 703L996 702L994 698L992 705L994 710L998 710L999 718L988 731L986 738L984 739L980 733L977 732L973 734L973 738L970 742L976 755L968 759L960 757L959 759L964 768L963 772L962 774L956 770L956 774L962 780L962 782L959 782L953 790L934 795L938 800L943 800L952 807L955 814L970 820L972 818L979 819L992 815L997 818L996 826L1001 828L1004 827L1006 829L1004 833L1007 833L1006 838L1008 843L1009 845L1012 844L1012 842L1014 843L1016 853L1016 857L1011 857L1011 855L1009 855L1003 868L1007 867L1008 870L1016 872L1023 865L1029 868L1033 868L1036 865L1038 869L1040 866L1038 860L1042 857L1042 852L1044 854L1046 861L1057 867L1060 865L1061 868L1065 869z" id="子洲县"/><path class="leaflet-interactive" stroke="#333" stroke-opacity="1" stroke-width="1" stroke-linecap="round" stroke-linejoin="round" stroke-dasharray="1,6" fill="#eee" fill-opacity="0.5" fill-rule="evenodd" d="M1164 199L1160 193L1152 189L1138 174L1137 171L1131 167L1136 162L1135 161L1127 161L1124 157L1120 155L1118 157L1102 150L1098 154L1098 168L1100 172L1106 173L1116 194L1118 206L1120 209L1114 209L1106 215L1102 215L1096 219L1093 219L1088 223L1087 226L1084 225L1078 229L1069 231L1067 233L1055 232L1039 212L1035 215L1033 220L1031 218L1032 223L1034 225L1038 224L1043 230L1054 238L1054 240L1050 244L1039 253L1037 253L1044 267L1036 268L1034 263L1026 261L1022 268L1017 270L1007 282L1003 283L994 296L988 296L985 305L980 303L978 308L983 313L983 322L980 326L987 337L990 338L993 343L1028 372L1032 381L1030 383L1024 382L1020 379L1013 378L1006 380L1002 383L1001 392L1003 399L1007 404L1010 403L1017 406L1021 409L1023 414L1032 418L1039 432L1045 436L1068 432L1093 437L1095 438L1096 444L1095 450L1102 456L1111 460L1114 465L1125 466L1130 468L1133 467L1136 469L1140 465L1152 465L1153 469L1151 472L1151 477L1153 481L1162 490L1163 499L1166 502L1170 503L1168 508L1172 509L1172 512L1176 512L1175 519L1179 517L1180 519L1177 523L1182 526L1183 529L1181 533L1187 534L1187 537L1184 538L1185 541L1182 542L1183 544L1187 544L1185 546L1187 549L1191 550L1188 551L1194 554L1194 557L1198 556L1199 558L1197 560L1199 562L1208 562L1210 561L1211 557L1212 536L1215 532L1219 530L1235 530L1245 515L1256 512L1258 510L1259 502L1267 484L1270 482L1277 484L1281 487L1289 482L1289 464L1291 462L1297 462L1299 456L1298 450L1301 443L1301 441L1295 438L1295 434L1291 429L1291 425L1295 415L1300 412L1299 403L1303 397L1299 391L1294 391L1292 389L1290 392L1288 387L1289 386L1284 386L1281 385L1281 383L1279 383L1279 381L1281 380L1281 376L1286 374L1283 371L1285 368L1281 366L1279 361L1279 358L1281 358L1284 355L1281 345L1274 342L1271 338L1263 333L1256 334L1244 327L1241 320L1237 316L1237 312L1232 309L1232 300L1237 297L1237 293L1233 291L1231 292L1228 285L1225 285L1225 282L1218 278L1216 280L1211 276L1212 274L1210 273L1212 271L1213 266L1210 264L1205 267L1203 266L1202 264L1206 255L1202 252L1199 247L1196 248L1194 246L1192 248L1186 240L1173 234L1170 231L1167 225L1169 217L1165 211L1163 203L1164 200zM1022 416L1020 414L1014 415L1014 424L1018 426L1020 425L1023 421L1023 418z" id="神木市"/></g></svg>